<?xml version="1.0" standalone="no"?><!DOCTYPE svg PUBLIC "-//W3C//DTD SVG 1.1//EN" "http://www.w3.org/Graphics/SVG/1.1/DTD/svg11.dtd"><svg t="1546497368821" class="icon" style="" viewBox="0 0 1024 1024" version="1.1" xmlns="http://www.w3.org/2000/svg" p-id="877" xmlns:xlink="http://www.w3.org/1999/xlink" width="200" height="200"><defs><style type="text/css"></style></defs><path d="M726.3563509 343.65040017C706.07305718 246.99624729 619.16948509 173.07606887 512 173.07606887c-84.03575421 0-156.42642975 45.5114007-191.18785859 113.75677586C231.00599003 298.14768982 164.38571167 369.23481178 164.38571167 457.39848566c0 93.8037157 78.23059559 170.57433128 173.80714416 170.57433128h376.55317784c81.1331749 0 144.86825467-62.5705719 144.86825466-142.20031499 0-73.89410734-60.83250046-136.43860817-133.25793743-142.13079215" fill="#1989FA" fill-opacity=".3" p-id="878"></path><path d="M512 468.54821397a78.21321488 78.21321488 0 1 1 0-156.42642976 78.21321488 78.21321488 0 0 1 0 156.42642975zM355.57357025 572.83250046a60.83250046 60.83250046 0 1 1 1e-8-121.66500092 60.83250046 60.83250046 0 0 1 0 121.66500092zM668.42642975 572.83250046a60.83250046 60.83250046 0 1 1-1e-8-121.66500092 60.83250046 60.83250046 0 0 1 0 121.66500092z" fill="#1989FA" p-id="879"></path><path d="M512 433.78678512a43.45178603 43.45178603 0 1 0 0-86.90357208 43.45178603 43.45178603 0 0 0 0 86.90357208zM355.57357025 538.07107163a26.07107163 26.07107163 0 1 0 1e-8-52.14214326 26.07107163 26.07107163 0 0 0 0 52.14214326zM668.42642975 538.07107163a26.07107163 26.07107163 0 1 0-1e-8-52.14214326 26.07107163 26.07107163 0 0 0 0 52.14214326z" fill="#FFFFFF" p-id="880"></path><path d="M225.21821213 798.78178787m-43.45178604 0a43.45178603 43.45178603 0 1 0 86.90357208 0 43.45178603 43.45178603 0 1 0-86.90357208 0Z" fill="#1989FA" p-id="881"></path><path d="M798.78178787 798.78178787m-43.45178604 0a43.45178603 43.45178603 0 1 0 86.90357208 0 43.45178603 43.45178603 0 1 0-86.90357208 0Z" fill="#1989FA" p-id="882"></path><path d="M512 737.94928742m-43.45178603-1e-8a43.45178603 43.45178603 0 1 0 86.90357206 0 43.45178603 43.45178603 0 1 0-86.90357207 0Z" fill="#1989FA" p-id="883"></path><path d="M494.61928557 446.82232094h34.76142886v252.02035904h-34.76142885zM338.19285583 546.76142883h34.76142884v165.11678696c0 57.59099722-46.69328929 104.2842865-104.2842865 104.2842865v-34.76142883a69.52285766 69.52285766 0 0 0 69.52285766-69.52285767V546.76142883zM685.80714417 546.76142883h-34.76142884v165.11678696c0 57.59099722 46.69328929 104.2842865 104.2842865 104.2842865v-34.76142883a69.52285766 69.52285766 0 0 1-69.52285766-69.52285767V546.76142883z" fill="#1989FA" p-id="884"></path></svg>